<svg width="36" height="31" viewBox="0 0 36 31" fill="none" xmlns="http://www.w3.org/2000/svg">
<g opacity="0.3">
<path d="M10.0443 29.1127C10.2163 29.2922 10.4206 29.4346 10.6455 29.5318C10.8705 29.6289 11.1116 29.679 11.3551 29.679C11.5986 29.679 11.8398 29.6289 12.0647 29.5318C12.2896 29.4346 12.4939 29.2922 12.6659 29.1127L24.9741 16.2995C25.1114 16.1569 25.2203 15.9874 25.2946 15.8009C25.369 15.6144 25.4072 15.4144 25.4072 15.2125C25.4072 15.0106 25.369 14.8106 25.2946 14.6241C25.2203 14.4375 25.1114 14.2681 24.9741 14.1255L12.6659 1.31227C11.9402 0.556738 10.7701 0.556738 10.0443 1.31227C9.31856 2.0678 10.4875 3.37782 11.2133 4.13335L21.8193 15.2125L10.6455 26.8667C9.93459 27.6068 9.31856 28.3726 10.0443 29.1127Z" fill="black"/>
</g>
</svg>
