<svg width="16" height="12" viewBox="0 0 16 12" fill="none" xmlns="http://www.w3.org/2000/svg">
<path d="M1.25901 1.60026L7.25901 5.36066C7.46061 5.48666 7.72141 5.54639 7.98381 5.54639C8.24621 5.54639 8.50701 5.48666 8.70861 5.36066L14.7086 1.60026C15.0998 1.35479 15.4694 0.399994 14.7518 0.399994H1.21661C0.499006 0.399994 0.868606 1.35479 1.25901 1.60026ZM14.8902 3.65639L8.70861 7.41493C8.43661 7.58106 8.24621 7.60066 7.98381 7.60066C7.72141 7.60066 7.53101 7.58106 7.25901 7.41493C6.98701 7.24879 1.55261 3.92519 1.10861 3.65546C0.796606 3.46506 0.799806 3.68813 0.799806 3.85986V10.6667C0.799806 11.0587 1.25261 11.6 1.59981 11.6H14.3998C14.747 11.6 15.1998 11.0587 15.1998 10.6667V3.86079C15.1998 3.68906 15.203 3.46599 14.8902 3.65639Z" fill="#161C35"/>
</svg>
